<svg width="200" height="200" viewBox="0 0 200 200" fill="none" xmlns="http://www.w3.org/2000/svg">
<rect width="200" height="200" fill="white"/>
<path d="M76.39 138.62C70.3833 141.793 62.62 143.38 53.1 143.38C27.0333 143.38 14 131.537 14 107.85H25.56C25.56 116.803 27.7133 123.207 32.02 127.06C36.44 130.913 43.5233 132.84 53.27 132.84C59.9567 132.84 65.3967 131.82 69.59 129.78C74.5767 127.287 77.07 123.603 77.07 118.73C77.07 112.723 71.7433 108.53 61.09 106.15C60.2967 106.037 54.63 105.187 44.09 103.6C26.41 100.993 17.57 93.4 17.57 80.82C17.57 72.66 21.0833 66.3133 28.11 61.78C34.23 57.9267 41.5967 56 50.21 56C75.37 56 88.0067 66.5967 88.12 87.79H76.39C76.39 80.1967 74.4067 74.7567 70.44 71.47C66.4733 68.1833 60.0133 66.54 51.06 66.54C45.0533 66.54 40.01 67.6733 35.93 69.94C31.3967 72.66 29.13 76.2867 29.13 80.82C29.13 86.7133 34.2867 90.5667 44.6 92.38C47.5467 92.9467 53.5533 93.9667 62.62 95.44C79.96 98.3867 88.63 106.15 88.63 118.73C88.63 127.57 84.55 134.2 76.39 138.62Z" fill="black"/>
<path d="M172.836 130.97C164.676 139.017 153.626 143.04 139.686 143.04C125.746 143.04 114.752 139.017 106.706 130.97C98.6591 122.923 94.6358 112.497 94.6358 99.69C94.6358 86.8833 98.7158 76.4567 106.876 68.41C115.036 60.25 126.086 56.17 140.026 56.17C153.966 56.17 164.959 60.25 173.006 68.41C181.166 76.4567 185.246 86.8833 185.246 99.69C185.246 112.497 181.109 122.923 172.836 130.97ZM165.016 75.55C159.009 69.43 150.622 66.37 139.856 66.37C129.202 66.37 120.872 69.43 114.866 75.55C108.859 81.67 105.856 89.7167 105.856 99.69C105.856 109.55 108.859 117.54 114.866 123.66C120.986 129.78 129.316 132.84 139.856 132.84C150.396 132.84 158.726 129.78 164.846 123.66C170.966 117.54 174.026 109.55 174.026 99.69C174.026 89.6033 171.022 81.5567 165.016 75.55Z" fill="black"/>
</svg>
